<svg xmlns="http://www.w3.org/2000/svg" viewBox="0 0 1979.87 963.78"><defs><style>.cls-1,.cls-2{fill:#0b374c;}.cls-1{opacity:0;}</style></defs><g id="Layer_2" data-name="Layer 2"><rect class="cls-1" width="1474.02" height="963.78"/></g><g id="Layer_1" data-name="Layer 1"><path class="cls-2" d="M1491,362a387.19,387.19,0,0,1-62.35-5v60.48H1491Z"/><path class="cls-2" d="M1225.41,241.69c-4.36-4.36-9.35-9.34-14.32-13.72V417.52h61.72V279.1C1247.86,260.4,1231.64,247.93,1225.41,241.69Z"/><path class="cls-2" d="M1909.42,269.74V400.68c18.71-34.28,42.4-77.93,70.45-130.94Z"/><path class="cls-2" d="M1738.58,327.74a547.59,547.59,0,0,1-61.74,19.95v69.83h61.74Z"/><path class="cls-2" d="M1650,907.61l29.32-56.74h-1305l28.06,56.74Z"/><path class="cls-2" d="M1772.26,667.56,1804,606.45H249l30.55,61.11Z"/><path class="cls-2" d="M969.78,69c-10,27.44-21.21,53-36.8,77.32V417.52h62.36V69Z"/><path class="cls-2" d="M1083.87,69h-26.8V417.52h62.34V146.29C1105.07,122,1093.85,96.41,1083.87,69Z"/><path class="cls-2" d="M841.32,228c-4.36,4.38-10,9.36-14.34,13.72-6.23,6.24-21.82,19.34-47.38,38.05V417.52h61.72Z"/><path class="cls-2" d="M623.72,357A385.32,385.32,0,0,1,562,362v55.49h61.74Z"/><path class="cls-2" d="M376.18,417.52V346.45c-21.82-6.24-41.78-12.48-62.35-21.84v92.91Z"/><path class="cls-2" d="M76.88,269.74,100,307.16c16.84,28.68,32.43,58,47.39,88.53V269.74Z"/></g></svg>