<?xml version="1.0" encoding="utf-8"?>
<!-- Generator: Adobe Illustrator 15.0.0, SVG Export Plug-In . SVG Version: 6.00 Build 0)  -->
<!DOCTYPE svg PUBLIC "-//W3C//DTD SVG 1.1//EN" "http://www.w3.org/Graphics/SVG/1.1/DTD/svg11.dtd">
<svg version="1.1" xmlns="http://www.w3.org/2000/svg" xmlns:xlink="http://www.w3.org/1999/xlink" x="0px" y="0px"
	 width="841.89px" height="841.89px" viewBox="0 0 841.89 841.89" enable-background="new 0 0 841.89 841.89" xml:space="preserve">
<g id="Layer_2">
</g>
<g id="Layer_1">
	<g>
		<rect x="66.541" y="676.499" fill="#F57E20" width="719.685" height="22.122"/>
		<rect x="234.664" y="598.716" fill="#F57E20" width="383.438" height="22.119"/>
		<rect x="448.505" y="511.665" fill="#F57E20" width="79.637" height="31.121"/>
		<path fill="#F57E20" d="M470.626,245.663v-15.968h-22.121v10.172c-7.253-1.247-14.635-1.897-22.124-1.897
			c-7.487,0-14.868,0.651-22.121,1.897v-10.172h-22.121v15.968C304.254,273.275,246.46,372.02,246.46,489.271v53.781h191.72v-30.92
			H268.584v-22.861c0-121.52,70.79-220.38,157.8-220.38c87.009,0,157.8,98.86,157.8,220.38v22.861h-45.719v30.92h67.841v-53.781
			C606.306,372.013,548.513,273.275,470.626,245.663z"/>
		<path fill="#F57E20" d="M426.384,148.387c12.506,0,22.68,9.412,22.68,22.683h22.124c0-25.071-20.099-44.804-44.804-44.804
			c-24.707,0-44.804,19.733-44.804,44.804h22.123C403.703,157.799,413.877,148.387,426.384,148.387z"/>
		<path fill="#F57E20" d="M723.637,544.513v56.438h-19.556v19.385h56.222V600.95h-18.334v-56.729
			c20.955-5.942,36.72-30.633,36.72-60.127v-98.517h-92.905v98.517C685.783,514.11,702.119,539.163,723.637,544.513z M701.69,469.05
			h51.391l-0.373-13.669L701.69,454.7v17.653v-70.509h62.279v80.927c0,22.373-13.97,40.566-31.138,40.566
			c-17.17,0-31.142-18.196-31.142-40.566V469.05L701.69,469.05z"/>
		<path fill="#F57E20" d="M549.917,465.046c0-72.187-45.37-130.793-101.412-130.793v28.492c44.242,0,79.291,45.315,79.291,102.301
			H549.917L549.917,465.046z"/>
		<path fill="#F57E20" d="M109.52,544.513v56.438H89.964v19.385h56.223V600.95h-18.334v-56.729
			c20.955-5.942,36.72-30.633,36.72-60.127v-98.517H71.667v98.517C71.667,514.11,88.002,539.163,109.52,544.513z M87.574,469.05
			h51.391l-0.373-13.669L87.574,454.7v17.653v-70.509h62.279v80.927c0,22.373-13.969,40.566-31.138,40.566
			c-17.17,0-31.142-18.196-31.142-40.566V469.05L87.574,469.05z"/>
	</g>
</g>
</svg>
