<?xml version="1.0" encoding="utf-8"?>
<!-- Generator: Adobe Illustrator 15.0.0, SVG Export Plug-In . SVG Version: 6.00 Build 0)  -->
<!DOCTYPE svg PUBLIC "-//W3C//DTD SVG 1.1//EN" "http://www.w3.org/Graphics/SVG/1.1/DTD/svg11.dtd">
<svg version="1.1" xmlns="http://www.w3.org/2000/svg" xmlns:xlink="http://www.w3.org/1999/xlink" x="0px" y="0px"
	 width="841.89px" height="841.89px" viewBox="0 0 841.89 841.89" enable-background="new 0 0 841.89 841.89" xml:space="preserve">
<g id="Layer_2">
</g>
<g id="Layer_1">
	<g>
		<path fill="#F57E20" d="M535.507,423.36c2.411,3.369,4.682,6.568,7.833,9.695c3.143,3.129,6.955,6.167,11.313,8.883
			c8.3,5.281,18.899,9.516,32.053,9.133c10.719-0.251,19.024-4.174,25.821-10.643c1.667-1.619,3.208-3.399,4.606-5.301
			c1.199-1.92,2.23-3.982,3.118-6.135c1.766-4.315,2.902-9.033,3.345-13.851c-0.056-5.411-0.95-10.954-2.832-16.194
			c-0.369-1.036-0.843-1.932-1.372-2.735l-0.084-0.172c-7.164-9.79-17.258-15.432-28.332-16.619
			c-11.281-1.228-22.983,1.725-33.452,7.057c-8.545,4.35-15.428,9.363-19.377,14.109c-1.847,2.363-3.625,4.808-4.666,7.231
			c-1.011,2.425-1.3,4.838-0.797,7.323C532.729,417.788,533.618,420.483,535.507,423.36z M571.911,400.89
			c10.259-2.998,18.91,0.11,24.487,7.212c0.81,2.444,1.051,4.817,0.904,7.041c-1.546,8.52-8.984,14.132-16.943,14.726
			c-7.936,0.653-16.581-3.118-20.162-11.296c-0.511-1.177-0.779-2.323-0.933-3.43C557.524,409.157,561.243,403.987,571.911,400.89z"
			/>
		<path fill="#F57E20" d="M515.007,516.995c-4.038-2.635-7.931-4.687-11.53-6.186c-3.564-1.449-7.229-2.827-10.339-3.4
			c-3.182-0.664-5.922-0.634-8.442-0.201c-2.654,0.222-4.938,1.056-6.875,2.605c-1.984,1.83-3.979,3.701-5.537,6.659
			c-3.436,7.221-6.133,15.409-6.494,25.71c-0.318,10.208,1.278,21.424,8.132,32.539c5.421,8.7,13.123,14.423,22.141,17.119
			c4.483,1.327,9.01,1.307,13.71,0.855c4.665-0.544,9.435-1.681,13.572-4.195c4.676-2.706,9.304-5.834,12.716-10.34
			c0.664-0.896,1.17-1.812,1.568-2.716l0.095-0.171c2.491-5.451,3.758-11.055,3.837-16.496c-0.142-5.724-1.437-11.255-3.68-16.375
			C533.404,532.144,525,523.492,515.007,516.995z M498.317,565.85c-3.757-1.439-6.99-4.074-9.279-7.384
			c-4.551-6.598-5.555-15.841-0.224-22.802c0.704-1.147,1.486-2.053,2.312-2.847c2.228-2.132,4.907-2.979,8.082-2.333
			c3.209,0.724,6.575,2.384,10.559,6.245c3.785,3.632,6.206,7.746,7.239,12.081c0.516,2.162,0.715,4.416,0.551,6.608
			c-0.224,2.111-0.782,4.204-1.63,6.227c-1.752,1.85-3.724,3.178-5.75,4.103C506.397,567.649,502.069,567.308,498.317,565.85z"/>
		<path fill="#F57E20" d="M753.347,453.274c-3.787-16.225-12.133-29.24-21.91-38.132h0.061c9.792-8.902,18.107-21.98,21.852-38.235
			c1.66-8.111,2.361-17.015,1.932-26.398c-0.571-9.355-3.027-19.102-6.395-29.014c-2.693-8.47-7.434-16.044-12.148-22.964
			c-4.836-6.889-10.127-12.975-16.317-17.74c-12.085-9.708-24.736-15.344-36.966-15.965c2.573-5.349,4.349-11.52,5.219-18.316
			c0.438-3.399,0.65-6.948,0.623-10.62c-0.15-3.578-0.586-7.244-1.244-11.006c-1.346-7.501-3.641-15.356-6.999-23.084
			c-3.661-7.463-8.328-14.871-13.878-21.801c-13.56-16.028-29.677-26.733-45.719-31.411c-15.701-5.248-31.367-4.322-44.116-0.163
			l-29.512,51.014c1.051,7.137,2.93,14.384,5.195,21.462c2.095,7.34,4.388,14.799,6.85,21.747c2.248,5.834,3.48,12.198,4.604,17.844
			c0.972,5.812,1.761,11.052,1.223,16.715c-0.813,11.081-4.316,21.146-12.316,31.113c-9.193,11.331-20.446,18.633-31.868,24.467
			c-5.761,2.938-11.524,5.442-17.019,7.599c-5.515,2.173-10.595,3.823-15.812,5.718c-1.043,0.362-2.014,0.876-2.944,1.443
			c-1.287-1.141-2.537-2.328-3.749-3.561c-1.411-0.99-2.837-1.956-4.199-3.007c-2.576-2.334-5.691-3.812-8.568-5.663l-2.15-1.413
			l-2.348-1.016c-1.552-0.699-3.076-1.454-4.58-2.263c-3.11-1.383-6.412-2.219-9.51-3.641c0.023-1.056-0.024-2.107-0.244-3.134
			c-2.094-9.933-4.004-22.541-4.838-34.858c-0.699-12.639,0.013-26.306,5.178-39.746c2.286-5.925,5.172-11.009,8.662-15.46
			c3.486-4.426,7.472-7.728,12.054-10.791c4.554-2.957,9.706-5.633,15.221-7.672c5.449-1.823,11.363-3.342,17.688-4.763l5.605-1.297
			l5.52-1.042c3.694-0.721,7.413-1.523,11.113-2.429c3.695-0.899,7.375-1.905,10.98-3.037c3.558-1.052,6.948-2.06,10.272-3.345
			l29.526-51.039c-2.396-13.73-10.162-26.51-22.239-38.329c-12.388-10.943-29.512-20.461-50.32-23.695
			c-4.388-0.775-8.766-1.297-13.083-1.579c-4.346-0.1-8.651,0.164-12.838,0.577c-8.379,0.892-16.31,2.544-23.464,5.145
			c-14.363,5.806-25.543,14.32-32.168,23.997c-6.623-9.677-17.798-18.181-32.159-23.979c-7.158-2.604-15.087-4.253-23.468-5.145
			c-4.19-0.416-8.495-0.68-12.843-0.581c-4.317,0.276-8.696,0.796-13.089,1.566c-20.939,3.229-38.057,12.785-50.398,23.746
			c-12.038,11.831-19.728,24.617-22.134,38.331l-0.03-0.053c-12.757-4.174-28.451-5.032-44.162,0.256
			c-16.051,4.724-32.145,15.453-45.638,31.368c-5.556,6.92-10.227,14.323-13.891,21.785c-3.357,7.725-5.652,15.583-6.99,23.083
			c-0.662,3.762-1.096,7.431-1.245,11.009c-0.025,3.672,0.189,7.225,0.626,10.623c0.873,6.799,2.651,12.975,5.222,18.324
			c-12.228,0.618-24.869,6.259-36.95,15.97c-6.188,4.768-11.479,10.854-16.317,17.743c-4.715,6.92-9.462,14.489-12.168,22.964
			c-3.398,9.968-5.869,19.739-6.427,29.109c-0.428,9.399,0.289,18.291,1.966,26.389c3.785,16.229,12.133,29.247,21.91,38.149h-0.058
			c-9.794,8.892-18.113,21.968-21.854,38.232c-1.66,8.106-2.362,17.009-1.929,26.393c0.568,9.354,3.025,19.103,6.393,29.01
			c2.693,8.47,7.433,16.043,12.146,22.963c4.838,6.891,10.126,12.977,16.317,17.744c12.091,9.706,24.742,15.339,36.968,15.963
			c-2.572,5.352-4.348,11.517-5.217,18.316c-0.438,3.399-0.647,6.951-0.626,10.622c0.156,3.58,0.586,7.242,1.252,11.004
			c1.34,7.504,3.636,15.359,6.993,23.094c3.661,7.453,8.329,14.868,13.878,21.797c13.559,16.023,29.678,26.727,45.718,31.403
			c15.705,5.25,31.371,4.325,44.115,0.171l29.514-51.018c-1.048-7.141-2.926-14.383-5.194-21.464
			c-2.095-7.343-4.388-14.797-6.852-21.747c-2.247-5.834-3.48-12.201-4.603-17.844c-0.971-5.814-1.76-11.054-1.222-16.717
			c0.814-11.075,4.317-21.144,12.317-31.111c9.193-11.326,20.446-18.629,31.868-24.462c5.759-2.938,11.524-5.442,17.02-7.605
			c5.514-2.172,10.594-3.821,15.812-5.723c1.044-0.352,2.015-0.876,2.943-1.438c1.289,1.137,2.536,2.334,3.751,3.561
			c1.413,0.996,2.836,1.962,4.199,3.008c2.57,2.333,5.69,3.822,8.567,5.662l2.149,1.408l2.349,1.017
			c1.551,0.715,3.076,1.458,4.58,2.273c3.11,1.378,6.412,2.213,9.51,3.641c-0.022,1.057,0.025,2.103,0.244,3.129
			c2.095,9.938,4.003,22.541,4.838,34.863c0.698,12.634-0.013,26.303-5.18,39.741c-2.284,5.924-5.17,11.014-8.66,15.459
			c-3.488,4.427-7.474,7.735-12.053,10.793c-4.554,2.957-9.707,5.633-15.224,7.675c-5.45,1.821-11.361,3.339-17.686,4.758
			l-5.605,1.298l-5.52,1.045c-3.688,0.715-7.414,1.52-11.107,2.425c-3.701,0.905-7.38,1.911-10.981,3.037
			c-3.562,1.057-6.953,2.062-10.278,3.351l-29.526,51.036c2.396,13.73,10.161,26.505,22.239,38.323
			c12.383,10.955,29.512,20.469,50.323,23.697c4.386,0.775,8.764,1.298,13.082,1.58c4.34,0.102,8.65-0.16,12.837-0.573
			c8.378-0.896,16.31-2.546,23.469-5.151c14.358-5.803,25.539-14.323,32.162-23.998c6.619,9.686,17.799,18.185,32.16,23.99
			c7.159,2.595,15.088,4.243,23.469,5.139c4.187,0.423,8.494,0.675,12.84,0.584c4.32-0.283,8.701-0.795,13.089-1.57
			c20.942-3.229,38.059-12.784,50.4-23.738c12.038-11.838,19.729-24.621,22.132-38.332l0.032,0.05
			c12.757,4.175,28.453,5.029,44.164-0.252c16.049-4.727,32.143-15.46,45.637-31.372c5.558-6.929,10.229-14.322,13.891-21.787
			c3.356-7.725,5.652-15.58,6.993-23.083c0.658-3.763,1.089-7.435,1.242-11.005c0.024-3.682-0.188-7.232-0.626-10.632
			c-0.873-6.789-2.651-12.966-5.224-18.315c12.229-0.625,24.87-6.268,36.951-15.974c6.19-4.768,11.479-10.854,16.316-17.744
			c4.716-6.92,9.46-14.484,12.169-22.963c3.396-9.958,5.871-19.735,6.427-29.109C755.74,470.273,755.026,461.371,753.347,453.274z
			 M514.019,430.572c0.229-1.689,0.513-3.37,0.855-5.049c0.297-3.431,0.188-6.931,0.65-10.381c-0.462-3.46-0.354-6.95-0.65-10.391
			c-0.343-1.68-0.626-3.359-0.855-5.05c-0.246-1.689-0.274-3.44-0.913-5.026c0.936-0.508,1.836-1.081,2.636-1.786
			c3.872-3.43,8.344-7.105,13.127-10.816c4.47-3.606,9.401-7.288,14.741-10.773c10.69-6.936,22.91-13.151,37.067-15.365
			c6.241-0.965,12.047-0.99,17.595-0.166c2.769,0.413,5.478,1.037,8.14,1.852c2.593,0.835,4.975,1.916,7.398,3.148
			c4.815,2.479,9.476,5.668,14.122,9.404c4.745,3.717,8.532,8.174,12.938,12.936c2.512,2.802,5.118,5.633,7.796,8.449
			c2.481,2.826,4.916,5.65,7.504,8.396c5.14,5.502,10.604,10.732,16.362,15.188h-0.033c-5.758,4.466-11.218,9.706-16.357,15.198
			c-2.585,2.746-5.014,5.572-7.493,8.398c-2.676,2.807-5.271,5.633-7.778,8.43c-4.433,4.788-8.2,9.243-12.92,12.975
			c-4.624,3.742-9.239,6.921-14.021,9.396c-2.411,1.237-4.78,2.313-7.363,3.147c-2.653,0.815-5.358,1.429-8.138,1.842
			c-5.56,0.825-11.408,0.794-17.75-0.191c-14.157-2.213-26.377-8.429-37.067-15.359c-5.34-3.49-10.271-7.162-14.741-10.773
			c-4.783-3.711-9.255-7.393-13.127-10.822c-0.797-0.704-1.7-1.277-2.636-1.78C513.744,434.002,513.772,432.262,514.019,430.572z
			 M551.146,336.518c8.865-5.256,17.158-11.548,24.116-19.413c7.113-7.962,12.269-17.095,15.219-28.134
			c0.948-3.546,1.428-7.59,1.557-12.023c-0.005-4.325-0.566-8.879-1.272-13.771c-0.777-4.825-1.607-10.104-2.874-15.155
			c-1.366-5.102-2.731-10.229-4.071-15.252c-2.455-10.473-5.465-19.89-5.776-28.809c-0.365-8.807,1.576-16.698,8.459-22.23
			c8.085-6.528,21.229-7.817,34.566-3.407c12.877,4.81,26.207,14.856,32.368,29.061c2.152,4.705,3.765,10.348,4.271,16.054
			c0.401,5.798-0.056,11.456-1.382,15.938c-2.554-4.924-5.918-10.009-11.245-13.499c-12.468-8.708-24.381-7.639-31.46-1.3
			c-7.087,6.317-9.843,17.484-4.768,29.127c0.94,2.177,2.081,4.184,3.299,6.111c1.119,2.009,2.382,3.888,3.775,5.64
			c2.785,3.503,6.084,6.508,9.738,9.045c7.194,5.125,15.153,8.947,23.422,10.205c-2.581,7.548-3.911,16.702-2.921,25.453
			c0.413,4.426,1.854,8.58,3.172,12.88c1.456,4.245,3.596,8.293,6.545,12.065c1.978,2.564,4.248,4.636,6.453,6.336
			c2.141,1.721,4.423,3.008,6.78,3.883c4.704,1.745,9.675,1.841,14.191,0.308c4.517-1.534,8.573-4.718,11.404-9.491
			c2.972-4.802,4.194-11.049,3.304-18.492c-0.754-6.367-2.919-12.176-6.012-16.908c7.362,1.685,15.633,7.62,21.363,13.655
			c2.854,3.073,5.558,6.382,7.505,9.997c1.92,3.622,3.468,7.429,4.642,11.306c2.232,7.786,3.488,15.717,2.226,23.205
			c-2.135,14.997-9.274,27.027-20.724,31.694c-8.24,3.471-15.717,1.263-23.087-3.465c-7.604-4.747-15.022-12.064-22.217-19.654
			c-7.772-7.488-15.449-15.289-23.071-21.49c-8.045-6.091-15.526-10.772-22.272-12.693c-22.657-5.708-42.892,0.201-60.824,10.36
			c-17.922,10.204-33.939,24.346-47.102,36.015c-3.533-6.977-6.736-14.289-11.977-20.339
			C513.76,353.4,533.371,346.974,551.146,336.518z M305.187,140.753c2.434-5.542,6.616-10.562,11.887-15.186
			c5.323-4.437,11.637-8.826,18.886-10.921c7.182-2.313,14.951-3.45,22.557-2.952c10.388,0.974,22.878,7.018,29.22,13.62
			c-5.551-0.241-11.567,0.649-17.351,3.062c-6.963,2.693-11.63,7.597-14.374,12.267c-2.735,4.785-3.463,9.857-2.522,14.524
			c1.946,9.425,10.154,16.906,22.788,18.395c4.755,0.752,9.346,0.664,13.76-0.116c4.416-0.771,8.648-2.368,12.699-3.872
			c8.062-3.325,15.309-8.859,20.522-15.388c5.216,6.528,12.471,12.056,20.535,15.375c4.053,1.506,8.283,3.103,12.699,3.874
			c4.41,0.783,8.997,0.873,13.742,0.126c12.688-1.481,20.869-8.975,22.787-18.412c0.923-4.675,0.176-9.75-2.558-14.532
			c-2.746-4.67-7.41-9.564-14.333-12.242c-5.892-2.454-12.02-3.319-17.66-3.03c5.132-5.497,14.416-9.89,22.503-11.926
			c8.197-2.128,16.567-1.434,24.503,0.186c3.955,0.892,7.806,2.046,11.373,3.669c3.526,1.76,6.83,3.804,9.83,6.067
			c6.001,4.54,10.773,9.881,13.768,15.619c2.897,5.992,4.1,12.214,3.39,18.199c-1.061,8.792-6.807,14.333-14.562,18.256
			c-1.946,0.99-4.009,1.833-6.201,2.676c-2.227,0.915-4.552,1.76-6.948,2.552c-4.795,1.584-9.874,2.96-14.995,4.248
			c-2.57,0.673-5.106,1.197-7.705,1.946l-7.765,2.372c-5.106,1.576-10.051,3.167-14.628,4.841
			c-9.229,3.671-17.099,8.271-22.128,13.106c-4.012,3.809-7.384,8.313-10.154,13.013c-2.767,4.664-4.935,9.49-6.591,14.423
			c-3.314,9.87-4.607,20.163-4.708,30.473c-0.098,10.308,0.983,20.642,2.49,30.535c1.49,10.018,3.515,18.98,5.248,28.219
			c-1.911-0.523-3.931-0.483-5.937-0.514c-2-0.07-3.996-0.216-5.996-0.438c-2.004,0.222-3.998,0.367-6,0.438
			c-2.004,0.031-4.025-0.009-5.937,0.514c1.735-9.244,3.757-18.202,5.249-28.214c1.504-9.893,2.579-20.225,2.479-30.531
			c-0.104-10.307-1.4-20.597-4.715-30.469c-1.658-4.934-3.82-9.762-6.586-14.426c-2.769-4.706-6.137-9.211-10.142-13.023
			c-5.14-4.957-13.031-9.596-22.207-13.244c-4.554-1.673-9.458-3.248-14.517-4.811c-5.077-1.612-10.287-3.143-15.309-4.275
			c-10.063-2.424-20.217-5.693-27.919-9.425c-7.746-3.912-13.592-9.444-14.98-18.241
			C301.862,151.943,302.759,146.328,305.187,140.753z M308.968,202.772c3.609,1.126,7.288,2.129,10.986,3.033
			c3.702,0.902,7.413,1.702,11.103,2.421l5.509,1.039l5.59,1.295c6.362,1.426,12.271,2.93,17.71,4.728
			c5.507,2.02,10.635,4.657,15.171,7.588c4.564,3.033,8.538,6.325,12.025,10.755c3.493,4.463,6.392,9.596,8.716,15.614
			c5.167,13.44,5.878,27.107,5.18,39.746c-0.835,12.317-2.744,24.925-4.838,34.858c-0.219,1.026-0.266,2.078-0.244,3.134
			c-3.099,1.422-6.4,2.258-9.51,3.641c-1.504,0.81-3.028,1.564-4.577,2.263l-2.352,1.016l-2.149,1.413
			c-2.877,1.851-5.997,3.329-8.567,5.663c-1.363,1.046-2.786,2.017-4.199,3.007c-1.215,1.232-2.462,2.42-3.747,3.561
			c-0.933-0.567-1.899-1.081-2.948-1.443c-5.217-1.896-10.297-3.545-15.812-5.718c-5.495-2.157-11.261-4.661-17.02-7.599
			c-11.422-5.834-22.674-13.136-31.868-24.467c-7.871-9.807-11.384-19.891-12.229-31.031c-0.551-5.693,0.221-10.969,1.174-16.803
			c1.107-5.67,2.329-12.037,4.562-17.838c2.471-6.971,4.768-14.442,6.859-21.782c2.263-7.081,4.134-14.323,5.169-21.455l0.018,0.028
			C302.01,200.719,305.405,201.721,308.968,202.772z M119.43,340.631c1.582-7.373,4.068-14.791,8.638-21.021
			c6.221-8.475,17.309-16.451,26.24-18.634c-2.965,4.703-5.079,10.416-5.813,16.672c-0.894,7.483,0.337,13.74,3.312,18.538
			c2.833,4.767,6.892,7.936,11.41,9.455c4.519,1.519,9.494,1.403,14.195-0.348c2.354-0.874,4.638-2.162,6.773-3.877
			c2.205-1.695,4.468-3.757,6.441-6.312c2.96-3.777,5.103-7.826,6.562-12.076c1.325-4.3,2.763-8.454,3.17-12.88
			c0.988-8.75-0.35-17.903-2.932-25.448c8.271-1.257,16.222-5.094,23.418-10.219c3.651-2.541,6.954-5.545,9.737-9.046
			c1.393-1.752,2.658-3.625,3.776-5.635c1.22-1.921,2.359-3.923,3.302-6.095c5.11-11.688,2.324-22.84-4.785-29.137
			c-7.106-6.314-19.043-7.355-31.446,1.308c-5.421,3.554-8.803,8.761-11.363,13.785c-2.208-7.204-1.778-17.76,0.91-25.418
			c2.558-7.893,6.78-15.249,12.198-21.214c5.646-5.74,12.27-10.314,19.031-13.367c6.633-3.217,14.087-4.102,20.537-3.833
			c6.551,0.367,12.471,2.347,17.266,5.902c7.036,5.24,9.03,13.046,8.673,21.868c-0.292,8.947-3.37,18.432-5.841,29.029
			c-1.351,5.079-2.733,10.264-4.104,15.419c-1.289,5.097-2.117,10.423-2.907,15.271c-0.714,4.916-1.292,9.467-1.294,13.782
			c0.11,4.411,0.572,8.404,1.496,11.87c2.935,11.044,8.087,20.182,15.199,28.143c6.96,7.861,15.255,14.158,24.122,19.408
			c17.784,10.451,37.406,16.873,54.693,22.808c-5.241,6.05-8.444,13.357-11.978,20.333c-13.164-11.668-29.177-25.801-47.093-36
			c-17.933-10.148-38.172-16.053-60.837-10.369c-6.905,1.961-14.421,6.639-22.435,12.693c-7.586,6.161-15.148,13.886-22.866,21.289
			c-7.111,7.509-14.447,14.741-22.036,19.488c-7.417,4.728-14.892,7.021-23.306,3.832c-10.15-3.742-17.281-14.398-20.127-28.189
			c-0.684-3.43-1.179-7.041-1.207-10.706C118.269,348.06,118.686,344.333,119.43,340.631z M174.012,415.143
			c5.754-4.467,11.219-9.717,16.358-15.208c2.585-2.746,5.014-5.576,7.496-8.396c2.675-2.812,5.268-5.639,7.773-8.43
			c4.436-4.788,8.199-9.253,12.922-12.976c4.625-3.741,9.238-6.925,14.021-9.399c2.412-1.232,4.776-2.313,7.364-3.148
			c2.652-0.814,5.359-1.434,8.137-1.841c5.555-0.82,11.409-0.79,17.75,0.19c14.158,2.214,26.376,8.43,37.068,15.365
			c5.339,3.485,10.275,7.167,14.741,10.773c4.783,3.711,9.253,7.387,13.126,10.816c0.8,0.705,1.7,1.273,2.636,1.786
			c-0.642,1.586-0.669,3.337-0.911,5.017c-0.226,1.7-0.516,3.38-0.852,5.06c-0.302,3.43-0.194,6.931-0.654,10.391
			c0.46,3.45,0.352,6.95,0.654,10.381c0.336,1.679,0.626,3.359,0.852,5.049c0.241,1.689,0.269,3.43,0.911,5.029
			c-0.936,0.503-1.836,1.076-2.636,1.78c-3.873,3.43-8.343,7.111-13.126,10.822c-4.466,3.611-9.402,7.283-14.741,10.773
			c-10.692,6.931-22.91,13.146-37.068,15.359c-6.24,0.966-12.044,0.985-17.592,0.17c-2.771-0.411-5.479-1.045-8.143-1.86
			c-2.595-0.834-4.972-1.91-7.398-3.138c-4.816-2.484-9.475-5.673-14.127-9.405c-4.743-3.722-8.527-8.178-12.935-12.935
			c-2.511-2.807-5.115-5.633-7.794-8.449c-2.481-2.827-4.913-5.653-7.503-8.399c-5.14-5.502-10.602-10.732-16.362-15.178H174.012z
			 M295.363,493.76c-8.858,5.251-17.16,11.537-24.115,19.413c-7.111,7.957-12.272,17.09-15.219,28.134
			c-0.948,3.55-1.431,7.584-1.557,12.02c0.005,4.325,0.563,8.872,1.273,13.771c0.777,4.828,1.606,10.1,2.879,15.158
			c1.36,5.1,2.726,10.229,4.066,15.249c2.454,10.471,5.464,19.886,5.778,28.808c0.36,8.811-1.58,16.697-8.461,22.229
			c-8.085,6.529-21.229,7.816-34.566,3.409c-12.88-4.807-26.208-14.855-32.371-29.058c-2.15-4.708-3.762-10.351-4.268-16.054
			c-0.405-5.804,0.058-11.466,1.376-15.942c2.559,4.928,5.924,10.008,11.25,13.498c12.469,8.71,24.382,7.635,31.461,1.298
			c7.086-6.316,9.842-17.482,4.768-29.12c-0.941-2.182-2.08-4.185-3.3-6.115c-1.118-2.012-2.381-3.883-3.774-5.644
			c-2.784-3.499-6.084-6.507-9.739-9.042c-7.196-5.12-15.152-8.952-23.424-10.199c2.583-7.555,3.914-16.707,2.917-25.458
			c-0.406-4.426-1.847-8.58-3.166-12.885c-1.458-4.234-3.598-8.288-6.548-12.061c-1.977-2.565-4.248-4.637-6.453-6.336
			c-2.134-1.721-4.423-3.008-6.777-3.884c-4.705-1.74-9.678-1.84-14.194-0.302c-4.514,1.529-8.57,4.718-11.402,9.486
			c-2.972,4.808-4.192,11.054-3.304,18.497c0.757,6.357,2.919,12.171,6.012,16.898c-7.363-1.68-15.633-7.615-21.364-13.65
			c-2.855-3.078-5.558-6.387-7.504-9.998c-1.921-3.62-3.468-7.433-4.64-11.305c-2.23-7.775-3.49-15.712-2.228-23.205
			c2.135-14.998,9.274-27.019,20.724-31.695c8.238-3.47,15.714-1.268,23.087,3.471c7.602,4.747,15.022,12.06,22.216,19.645
			c7.779,7.493,15.451,15.299,23.072,21.495c8.045,6.085,15.525,10.772,22.267,12.693c22.663,5.713,42.897-0.201,60.83-10.36
			c17.921-10.199,33.937-24.341,47.101-36.01c3.531,6.98,6.737,14.283,11.978,20.329C332.752,476.872,313.14,483.299,295.363,493.76
			z M397.954,476.349c-1.329-0.513-2.508-1.378-3.833-1.922c-1.315-0.553-2.681-1.035-3.808-1.99
			c-1.196-0.806-2.443-1.52-3.751-2.163c-1.167-0.855-2.23-1.881-3.438-2.676c-0.593-0.422-1.204-0.824-1.828-1.207
			c-0.548-0.482-1.016-1.057-1.551-1.56c-1.049-1.025-2.155-1.971-3.335-2.846c-0.885-1.188-1.831-2.294-2.851-3.34
			c-0.496-0.533-1.074-1.006-1.557-1.549c-0.382-0.624-0.782-1.237-1.199-1.83c-0.81-1.207-1.824-2.264-2.686-3.44
			c-0.642-1.308-1.36-2.545-2.162-3.753c-0.956-1.126-1.439-2.483-1.997-3.802c-0.536-1.327-1.402-2.505-1.918-3.832
			c-0.586-2.815-2.303-5.23-2.57-8.127c-1.983-5.371-1.768-11.276-2.464-17.17c0.696-5.904,0.481-11.809,2.464-17.181
			c0.267-2.895,1.984-5.318,2.57-8.124c0.516-1.333,1.382-2.51,1.918-3.833c0.558-1.317,1.041-2.685,1.997-3.807
			c0.802-1.202,1.521-2.449,2.162-3.757c0.862-1.167,1.876-2.229,2.686-3.436c0.417-0.593,0.817-1.201,1.199-1.831
			c0.483-0.547,1.061-1.016,1.557-1.548c1.021-1.047,1.966-2.152,2.851-3.335c1.18-0.885,2.286-1.83,3.335-2.852
			c0.535-0.497,1.003-1.071,1.551-1.554c0.624-0.383,1.235-0.785,1.828-1.202c1.208-0.811,2.271-1.825,3.438-2.686
			c1.308-0.644,2.555-1.358,3.751-2.163c1.126-0.955,2.492-1.438,3.808-1.996c1.325-0.533,2.504-1.403,3.833-1.921
			c2.811-0.584,5.229-2.304,8.124-2.57c5.374-1.982,11.273-1.771,17.175-2.465c5.907,0.694,11.807,0.482,17.18,2.465
			c2.892,0.267,5.313,1.986,8.123,2.57c1.329,0.518,2.509,1.388,3.835,1.921c1.314,0.559,2.68,1.041,3.807,1.996
			c1.199,0.805,2.443,1.52,3.752,2.163c1.166,0.86,2.23,1.875,3.438,2.686c0.594,0.417,1.202,0.819,1.828,1.202
			c0.548,0.482,1.016,1.057,1.552,1.554c1.044,1.021,2.152,1.967,3.335,2.852c0.885,1.183,1.83,2.288,2.851,3.335
			c0.495,0.532,1.069,1.001,1.552,1.548c0.388,0.63,0.787,1.238,1.204,1.831c0.81,1.207,1.823,2.269,2.687,3.436
			c0.641,1.308,1.36,2.555,2.162,3.757c0.956,1.122,1.438,2.489,1.993,3.807c0.533,1.323,1.406,2.505,1.922,3.833
			c0.586,2.806,2.307,5.229,2.569,8.124c1.982,5.372,1.769,11.276,2.466,17.181c-0.697,5.894-0.483,11.799-2.466,17.17
			c-0.263,2.896-1.983,5.312-2.569,8.127c-0.516,1.327-1.389,2.505-1.922,3.832c-0.555,1.318-1.037,2.676-1.993,3.802
			c-0.802,1.208-1.521,2.445-2.162,3.753c-0.863,1.177-1.877,2.233-2.687,3.44c-0.417,0.593-0.816,1.206-1.204,1.83
			c-0.482,0.543-1.057,1.016-1.552,1.549c-1.021,1.046-1.966,2.152-2.851,3.34c-1.183,0.875-2.291,1.82-3.335,2.846
			c-0.536,0.503-1.004,1.077-1.552,1.56c-0.626,0.383-1.234,0.785-1.828,1.207c-1.207,0.795-2.271,1.82-3.438,2.676
			c-1.309,0.644-2.553,1.357-3.752,2.163c-1.127,0.955-2.492,1.438-3.807,1.99c-1.326,0.544-2.506,1.409-3.835,1.922
			c-2.81,0.593-5.231,2.313-8.123,2.574c-5.373,1.981-11.272,1.771-17.18,2.465c-5.901-0.693-11.801-0.483-17.175-2.465
			C403.184,478.662,400.765,476.941,397.954,476.349z M541.322,689.519c-2.432,5.543-6.613,10.562-11.884,15.189
			c-5.323,4.436-11.636,8.832-18.888,10.924c-7.182,2.312-14.949,3.449-22.557,2.945c-10.383-0.976-22.877-7.021-29.22-13.617
			c5.552,0.241,11.567-0.654,17.352-3.07c6.963-2.684,11.63-7.594,14.379-12.26c2.729-4.788,3.458-9.857,2.517-14.525
			c-1.946-9.424-10.153-16.908-22.791-18.396c-4.752-0.745-9.344-0.664-13.76,0.119c-4.412,0.776-8.645,2.364-12.696,3.872
			c-8.062,3.32-15.308,8.863-20.521,15.38c-5.218-6.517-12.469-12.05-20.531-15.369c-4.057-1.497-8.286-3.099-12.697-3.872
			c-4.418-0.784-9.003-0.875-13.748-0.13c-12.689,1.487-20.869,8.982-22.786,18.416c-0.925,4.666-0.184,9.747,2.555,14.536
			c2.751,4.666,7.411,9.555,14.338,12.229c5.887,2.466,12.015,3.33,17.655,3.039c-5.132,5.492-14.416,9.888-22.503,11.93
			c-8.198,2.121-16.567,1.428-24.503-0.191c-3.951-0.885-7.805-2.042-11.371-3.672c-3.528-1.76-6.835-3.803-9.832-6.065
			c-6-4.536-10.773-9.877-13.769-15.621c-2.896-5.984-4.098-12.21-3.389-18.195c1.061-8.79,6.808-14.323,14.56-18.257
			c1.949-0.994,4.011-1.83,6.204-2.674c2.225-0.916,4.549-1.762,6.948-2.546c4.798-1.588,9.875-2.966,14.995-4.254
			c2.567-0.674,5.107-1.188,7.704-1.943l7.761-2.372c5.112-1.58,10.056-3.169,14.633-4.848c9.229-3.662,17.104-8.269,22.128-13.107
			c4.01-3.802,7.383-8.298,10.152-13.006c2.769-4.666,4.934-9.495,6.593-14.424c3.314-9.867,4.606-20.167,4.707-30.477
			c0.099-10.311-0.983-20.641-2.489-30.528c-1.491-10.028-3.514-18.98-5.249-28.225c1.912,0.523,3.931,0.483,5.937,0.514
			c2.002,0.081,3.996,0.221,5.995,0.442c2.005-0.222,3.998-0.361,5.997-0.442c2.01-0.03,4.029,0.01,5.938-0.514
			c-1.732,9.244-3.755,18.196-5.245,28.225c-1.504,9.878-2.581,20.218-2.479,30.518c0.104,10.31,1.396,20.6,4.715,30.467
			c1.657,4.939,3.819,9.768,6.586,14.435c2.769,4.707,6.135,9.203,10.142,13.016c5.14,4.959,13.03,9.606,22.206,13.258
			c4.555,1.658,9.455,3.238,14.517,4.799c5.077,1.619,10.288,3.147,15.31,4.284c10.066,2.414,20.218,5.682,27.92,9.413
			c7.751,3.924,13.589,9.457,14.979,18.247C544.646,678.325,543.752,683.946,541.322,689.519z M537.543,627.498
			c-3.608-1.126-7.287-2.122-10.986-3.027c-3.696-0.905-7.416-1.7-11.103-2.424l-5.512-1.036l-5.588-1.298
			c-6.361-1.429-12.273-2.937-17.71-4.728c-5.505-2.021-10.634-4.657-15.174-7.585c-4.561-3.037-8.534-6.325-12.021-10.762
			c-3.492-4.466-6.397-9.597-8.719-15.61c-5.165-13.438-5.877-27.107-5.178-39.741c0.834-12.322,2.744-24.926,4.838-34.863
			c0.22-1.026,0.268-2.072,0.244-3.129c3.098-1.428,6.399-2.263,9.51-3.641c1.504-0.815,3.028-1.559,4.58-2.273l2.348-1.017
			l2.15-1.408c2.877-1.84,5.992-3.329,8.568-5.662c1.362-1.046,2.786-2.012,4.199-3.008c1.212-1.227,2.462-2.424,3.749-3.561
			c0.931,0.562,1.901,1.087,2.944,1.438c5.218,1.911,10.298,3.551,15.812,5.723c5.494,2.163,11.258,4.668,17.019,7.605
			c11.422,5.833,22.675,13.136,31.868,24.462c7.871,9.807,11.384,19.896,12.229,31.031c0.551,5.692-0.219,10.974-1.177,16.807
			c-1.104,5.664-2.326,12.04-4.562,17.834c-2.473,6.971-4.766,14.444-6.857,21.777c-2.263,7.081-4.134,14.322-5.17,21.465
			l-0.018-0.031C544.501,629.561,541.106,628.555,537.543,627.498z M727.081,489.646c-1.581,7.373-4.071,14.786-8.638,21.022
			c-6.219,8.47-17.309,16.446-26.243,18.629c2.968-4.708,5.082-10.411,5.814-16.667c0.899-7.483-0.335-13.74-3.31-18.548
			c-2.834-4.759-6.893-7.937-11.411-9.445c-4.52-1.519-9.493-1.408-14.195,0.343c-2.351,0.874-4.64,2.161-6.772,3.882
			c-2.205,1.689-4.468,3.752-6.442,6.307c-2.957,3.782-5.102,7.826-6.56,12.081c-1.326,4.294-2.764,8.448-3.171,12.875
			c-0.988,8.75,0.35,17.903,2.931,25.447c-8.27,1.258-16.224,5.1-23.418,10.219c-3.65,2.545-6.953,5.553-9.738,9.043
			c-1.392,1.751-2.656,3.631-3.775,5.634c-1.218,1.931-2.358,3.933-3.299,6.104c-5.112,11.678-2.329,22.844,4.783,29.13
			c7.105,6.316,19.04,7.362,31.444-1.308c5.422-3.551,8.802-8.761,11.364-13.78c2.208,7.202,1.778,17.764-0.911,25.418
			c-2.554,7.896-6.778,15.249-12.198,21.214c-5.643,5.743-12.269,10.311-19.031,13.367c-6.633,3.219-14.086,4.104-20.536,3.834
			c-6.548-0.374-12.47-2.344-17.266-5.906c-7.035-5.24-9.025-13.045-8.673-21.867c0.291-8.941,3.369-18.437,5.839-29.029
			c1.353-5.078,2.733-10.259,4.107-15.419c1.289-5.09,2.116-10.421,2.906-15.269c0.714-4.919,1.293-9.475,1.295-13.78
			c-0.11-4.416-0.574-8.409-1.496-11.869c-2.935-11.055-8.088-20.188-15.201-28.145c-6.958-7.865-15.257-14.162-24.12-19.412
			c-17.783-10.44-37.403-16.868-54.693-22.804c5.24-6.055,8.443-13.357,11.977-20.338c13.162,11.669,29.178,25.8,47.097,35.999
			c17.93,10.15,38.17,16.055,60.829,10.371c6.91-1.961,14.427-6.639,22.44-12.693c7.587-6.156,15.148-13.881,22.868-21.294
			c7.109-7.504,14.444-14.736,22.033-19.484c7.416-4.727,14.892-7.02,23.306-3.832c10.154,3.752,17.28,14.404,20.128,28.194
			c0.681,3.42,1.182,7.04,1.206,10.702C728.242,482.213,727.825,485.944,727.081,489.646z"/>
		<path fill="#F57E20" d="M323.173,588.501c4.395,3.219,9.853,4.828,15.359,5.754c1.089,0.171,2.112,0.19,3.086,0.11l0.188,0.01
			c5.797-0.171,11.465-2.313,16.283-5.14c4.838-2.847,8.932-6.599,12.211-11.024c3.277-4.396,5.778-9.575,7.517-15.117
			c1.725-5.502,2.681-11.316,3.057-17.392c0.561-9.777-0.438-17.934-2.594-23.637c-0.976-3.149-2.215-5.794-3.83-7.767
			c-1.625-1.961-3.626-3.248-5.753-4.485c-2.354-1.178-5.233-1.55-8.666-1.317c-7.469-0.121-16.778,2.665-25.453,6.931
			c-8.832,4.606-17.889,11.758-24.038,23.204c-4.82,9.053-6.413,19.172-3.797,27.782c1.207,4.405,3.227,8.67,5.901,12.604
			C315.552,582.607,319.142,585.825,323.173,588.501z M332.075,543.811c3.583-7.443,10.652-12.231,19.805-11.768
			c1.303,0.11,2.444,0.392,3.505,0.774c2.794,1.177,4.972,2.866,6.093,5.724c1.093,2.906,1.144,7.021-0.198,12.361
			c-2.513,10.32-9.559,16.385-18.574,17.854c-2.604-0.342-4.599-1.649-6.366-3.008c-3.335-2.654-5.381-6.296-6.091-10.118
			C329.52,551.808,330.375,547.412,332.075,543.811z"/>
		<path fill="#F57E20" d="M227.116,434.062l0.086,0.171c7.165,9.787,17.259,15.43,28.333,16.617
			c11.278,1.228,22.983-1.73,33.452-7.062c8.545-4.345,15.427-9.354,19.38-14.102c1.843-2.364,3.621-4.809,4.663-7.233
			c1.011-2.424,1.3-4.837,0.796-7.312c-0.042-2.655-0.938-5.362-2.821-8.229c-2.412-3.369-4.682-6.567-7.833-9.696
			c-3.143-3.13-6.96-6.163-11.316-8.879c-8.297-5.286-18.897-9.516-32.051-9.143c-10.717,0.261-19.023,4.179-25.82,10.65
			c-1.667,1.616-3.209,3.391-4.606,5.297c-1.202,1.924-2.23,3.986-3.116,6.138c-1.767,4.315-2.904,9.032-3.346,13.861
			c0.058,5.401,0.948,10.944,2.832,16.184C226.116,432.363,226.589,433.257,227.116,434.062z M266.154,400.406
			c7.933-0.653,16.579,3.118,20.161,11.296c0.509,1.177,0.778,2.324,0.932,3.44c1.74,5.974-1.981,11.145-12.646,14.242
			c-10.26,2.998-18.91-0.11-24.487-7.212c-0.81-2.443-1.049-4.818-0.906-7.03C250.755,406.613,258.193,401.01,266.154,400.406z"/>
		<path fill="#F57E20" d="M331.503,313.277c4.04,2.636,7.929,4.687,11.53,6.181c3.566,1.449,7.229,2.832,10.34,3.405
			c3.181,0.665,5.924,0.639,8.444,0.207c2.656-0.226,4.939-1.062,6.878-2.61c1.979-1.831,3.973-3.702,5.532-6.654
			c3.435-7.223,6.133-15.41,6.499-25.715c0.313-10.205-1.278-21.42-8.135-32.536c-5.421-8.701-13.127-14.432-22.141-17.123
			c-4.487-1.326-9.015-1.303-13.71-0.847c-4.664,0.53-9.437,1.672-13.566,4.184c-4.68,2.708-9.304,5.836-12.721,10.342
			c-0.665,0.897-1.17,1.808-1.57,2.719l-0.098,0.165c-2.489,5.454-3.753,11.058-3.832,16.501c0.141,5.726,1.434,11.252,3.679,16.373
			C313.107,298.134,321.511,306.774,331.503,313.277z M348.194,264.428c3.754,1.441,6.989,4.077,9.278,7.378
			c4.552,6.598,5.553,15.847,0.229,22.807c-0.708,1.142-1.49,2.047-2.315,2.842c-2.23,2.137-4.909,2.982-8.08,2.338
			c-3.213-0.724-6.578-2.389-10.562-6.246c-3.785-3.642-6.207-7.746-7.244-12.088c-0.511-2.163-0.709-4.416-0.549-6.612
			c0.227-2.102,0.785-4.196,1.632-6.226c1.753-1.849,3.722-3.173,5.757-4.094C340.109,262.627,344.441,262.972,348.194,264.428z"/>
		<path fill="#F57E20" d="M523.344,241.769c-4.406-3.213-9.86-4.82-15.365-5.746c-1.089-0.174-2.112-0.194-3.085-0.119l-0.189-0.007
			c-5.796,0.171-11.464,2.318-16.282,5.137c-4.838,2.847-8.931,6.604-12.213,11.032c-3.274,4.394-5.777,9.573-7.514,15.121
			c-1.726,5.495-2.678,11.316-3.059,17.389c-0.561,9.772,0.438,17.929,2.599,23.632c0.973,3.149,2.212,5.799,3.827,7.771
			c1.621,1.957,3.623,3.249,5.758,4.481c2.35,1.172,5.229,1.554,8.661,1.317c7.468,0.126,16.776-2.665,25.456-6.931
			c8.828-4.606,17.886-11.752,24.029-23.204c4.825-9.053,6.415-19.172,3.802-27.782c-1.207-4.4-3.227-8.665-5.902-12.604
			C530.96,247.665,527.366,244.451,523.344,241.769z M514.437,286.461c-3.583,7.438-10.654,12.236-19.806,11.768
			c-1.303-0.106-2.444-0.392-3.505-0.774c-2.794-1.172-4.974-2.856-6.093-5.724c-1.095-2.901-1.145-7.015,0.197-12.359
			c2.514-10.325,9.56-16.385,18.573-17.859c2.605,0.35,4.6,1.65,6.373,3.015c3.329,2.653,5.376,6.292,6.085,10.115
			C516.991,278.462,516.137,282.855,514.437,286.461z"/>
	</g>
</g>
</svg>
