<?xml version="1.0" encoding="utf-8"?>
<!-- Generator: Adobe Illustrator 15.0.0, SVG Export Plug-In . SVG Version: 6.00 Build 0)  -->
<!DOCTYPE svg PUBLIC "-//W3C//DTD SVG 1.1//EN" "http://www.w3.org/Graphics/SVG/1.1/DTD/svg11.dtd">
<svg version="1.1" xmlns="http://www.w3.org/2000/svg" xmlns:xlink="http://www.w3.org/1999/xlink" x="0px" y="0px"
	 width="841.89px" height="841.89px" viewBox="0 0 841.89 841.89" enable-background="new 0 0 841.89 841.89" xml:space="preserve">
<g id="Layer_2">
</g>
<g id="Layer_1">
	<g>
		<path fill="#F57E20" d="M762.625,668.474c-72.74,0-116.029-18.924-157.895-37.218c-39.898-17.451-81.174-35.486-145.033-35.486
			c-55.161,0-108.05,21.628-154.716,40.719c-40.221,16.455-78.209,31.985-111.863,31.985h-36.881
			c21.538-9.605,46.097-21.607,72.973-34.744c102.294-49.973,229.602-112.178,327.426-112.178
			c119.615,0,198.405,57.741,199.193,58.325c5.019,3.746,12.137,2.723,15.892-2.284c3.764-5.025,2.746-12.146-2.268-15.907
			c-2.854-2.137-60.173-44.354-152.988-58.368V484.08c20.842-4.134,36.352-19.383,36.352-37.51c0-8.869-4.316-30.643-11.3-50.339
			c-10.21-28.808-22.122-42.812-36.408-42.812c-9.991,0-18.81,6.844-26.704,20.789c-2.328-13.96-6.925-32.829-13.126-50.524
			c-13.002-37.076-27.719-55.089-44.997-55.089s-32,18.013-44.994,55.089c-9.162,26.142-14.832,54.853-14.832,66.47
			c0,23.409,20.89,42.938,48.473,47.229v54.863c-65.817-34.026-131.917-48.393-196.742-42.732
			c-52.376,4.583-92.805,21.45-118.059,35.248c-33.545-12.878-69.96-22.293-110.078-22.293c-6.271,0-11.357,5.091-11.357,11.374
			c0,6.26,5.086,11.346,11.357,11.346c65.747,0,122.669,28.279,172.898,53.236c22.106,10.968,42.32,21.016,61.41,27.812
			c-34.388,15.46-67.894,31.828-99.117,47.082c-58.053,28.365-112.87,55.155-135.191,55.155c-6.271,0-11.357,5.081-11.357,11.352
			c0,6.278,5.086,11.363,11.357,11.363h109.068c38.116,0,78.117-16.353,120.458-33.674c46.917-19.182,95.428-39.035,146.121-39.035
			c59.115,0,96.43,16.32,135.931,33.594c44.003,19.229,89.497,39.115,166.997,39.115c6.271,0,11.369-5.085,11.369-11.363
			C773.994,673.555,768.896,668.474,762.625,668.474L762.625,668.474z M556.636,498.83c-8.166,0-16.508,0.401-24.996,1.158v-62.622
			c10.906-1.694,20.763-5.758,28.706-11.52c-1.907,8.847-2.957,16.353-2.957,20.724c0,18.127,15.513,33.376,36.356,37.51v16.465
			C581.856,499.442,569.481,498.83,556.636,498.83z M589.055,406.869c7.1-21.157,13.611-28.884,16.054-30.513
			c2.43,1.629,8.942,9.356,16.042,30.513c5.753,17.164,8.943,34.365,8.943,39.701c0,5.903-5.682,11.293-13.629,14.021v-10.996
			c0-6.271-5.088-11.353-11.356-11.353c-6.281,0-11.363,5.082-11.363,11.353v10.996c-7.948-2.728-13.633-8.117-13.633-14.021
			C580.112,441.234,583.303,424.033,589.055,406.869z M483.17,390.154c0-8.468,5.152-34.993,13.553-58.954
			c11.62-33.11,21.541-39.89,23.559-39.89c2.022,0,11.935,6.78,23.55,39.89c8.405,23.96,13.558,50.485,13.558,58.954
			c0,11.065-10.982,20.735-25.749,24.096v-25.242c0-6.272-5.083-11.358-11.358-11.358c-6.271,0-11.354,5.086-11.354,11.358v25.258
			C494.157,410.895,483.17,401.22,483.17,390.154z M267.057,518.072c-14.523-7.213-29.587-14.689-45.291-21.736
			c22.959-10.481,54.227-20.843,92.4-24.188c56.805-4.968,114.904,6.705,173.086,34.669c-43.743,9.241-89.859,25.653-135.256,44.761
			C327.672,548.152,299.502,534.197,267.057,518.072L267.057,518.072z"/>
		<path fill="#F57E20" d="M570.788,197.591h17.014c1.021,5.265,3.081,10.151,5.987,14.437l-12.037,12.04
			c-2.895,2.89-2.895,7.581,0,10.471c1.448,1.45,3.344,2.175,5.238,2.175c1.897,0,3.798-0.726,5.24-2.175l12.042-12.03
			c4.277,2.901,9.169,4.968,14.432,5.985v17.013c0,4.097,3.314,7.413,7.41,7.413c4.095,0,7.408-3.316,7.408-7.413v-17.013
			c5.262-1.017,10.153-3.084,14.432-5.985l12.042,12.03c1.446,1.45,3.344,2.175,5.241,2.175c1.895,0,3.789-0.726,5.239-2.175
			c2.898-2.89,2.898-7.581,0-10.471l-12.035-12.04c2.899-4.286,4.964-9.172,5.983-14.437h17.015c4.094,0,7.411-3.317,7.411-7.408
			c0-4.101-3.317-7.414-7.411-7.414h-17.015c-1.02-5.265-3.084-10.145-5.983-14.431l12.035-12.04c2.898-2.9,2.898-7.587,0-10.476
			c-2.892-2.901-7.589-2.901-10.48,0l-12.042,12.029c-4.278-2.889-9.17-4.967-14.432-5.991v-17.007c0-4.096-3.313-7.413-7.408-7.413
			c-4.096,0-7.41,3.317-7.41,7.413v17.007c-5.263,1.023-10.154,3.102-14.432,5.991l-12.042-12.029
			c-2.891-2.901-7.587-2.901-10.479,0c-2.895,2.889-2.895,7.581,0,10.476l12.037,12.04c-2.906,4.286-4.967,9.166-5.987,14.431
			h-17.014c-4.095,0-7.412,3.312-7.412,7.414C563.376,194.274,566.693,197.591,570.788,197.591z M626.114,165.979
			c13.344,0,24.205,10.854,24.205,24.203c0,13.345-10.861,24.204-24.205,24.204c-13.346,0-24.208-10.859-24.208-24.204
			C601.906,176.833,612.769,165.979,626.114,165.979z"/>
		<g>
			<polygon fill="#F57E20" points="400.711,333.436 395.183,333.436 397.559,295.217 398.337,295.217 			"/>
			<polygon fill="#F57E20" points="158.154,351.276 152.633,351.276 155.005,313.058 155.785,313.058 			"/>
			<polygon fill="#F57E20" points="186.727,349.025 124.062,349.025 155.392,328.02 155.392,328.02 			"/>
			<polygon fill="#F57E20" points="429.277,331.19 366.613,331.19 397.946,310.184 397.946,310.184 			"/>
			<polygon fill="#F57E20" points="341.254,305.758 335.729,305.758 338.102,267.545 338.881,267.545 			"/>
			<polygon fill="#F57E20" points="220.39,305.758 214.865,305.758 217.235,267.545 218.017,267.545 			"/>
			<polygon fill="#F57E20" points="279.479,280.244 273.957,280.244 276.33,242.032 277.108,242.032 			"/>
			<polygon fill="#F57E20" points="333.794,296.986 218.036,296.986 275.916,255.884 275.916,255.884 			"/>
			<polygon fill="#F57E20" points="356.521,293.053 320.464,293.053 338.495,280.244 338.495,280.244 			"/>
			<polygon fill="#F57E20" points="235.654,293.053 199.595,293.053 217.625,280.244 217.625,280.244 			"/>
			<path fill="#F57E20" d="M123.918,343.728v129.736c5.146,2.24,10.105,4.869,14.746,7.688h48.201V343.728H123.918z
				 M170.808,473.085h-32.529v-25.92h32.529V473.085z M170.808,428.491h-32.529v-25.918h32.529V428.491z M170.808,383.894h-32.529
				V357.98h32.529V383.894z"/>
			<path fill="#F57E20" d="M195.68,291.035V485.61h36.009c14.885-8.895,31.375-14.003,48.504-16.952
				c25.645-8.556,52.501-15.042,77.113-11.05V291.035H195.68z M242.156,473.085h-32.529v-25.92h32.529V473.085z M242.156,428.491
				h-32.529v-25.918h32.529V428.491z M242.156,383.894h-32.529V357.98h32.529V383.894z M242.156,339.301h-32.529v-25.914h32.529
				V339.301z M291.21,428.491h-32.529v-25.918h32.529V428.491z M291.21,383.894h-32.529V357.98h32.529V383.894z M291.21,339.301
				h-32.529v-25.914h32.529V339.301z M340.261,428.491h-32.528v-25.918h32.528V428.491z M340.261,383.894h-32.528V357.98h32.528
				V383.894z M340.261,339.301h-32.528v-25.914h32.528V339.301z"/>
			<path fill="#F57E20" d="M366.472,325.892v132.625c4.997,1.104,9.888,2.684,14.645,4.795h48.306v-137.42H366.472z
				 M416.071,450.786h-32.53v-25.915h32.53V450.786z M416.071,406.192h-32.53V380.28h32.53V406.192z M416.071,361.601h-32.53
				v-25.914h32.53V361.601z"/>
		</g>
	</g>
</g>
</svg>
