<?xml version="1.0" encoding="utf-8"?>
<!-- Generator: Adobe Illustrator 15.0.0, SVG Export Plug-In . SVG Version: 6.00 Build 0)  -->
<!DOCTYPE svg PUBLIC "-//W3C//DTD SVG 1.1//EN" "http://www.w3.org/Graphics/SVG/1.1/DTD/svg11.dtd">
<svg version="1.1" xmlns="http://www.w3.org/2000/svg" xmlns:xlink="http://www.w3.org/1999/xlink" x="0px" y="0px"
	 width="841.89px" height="841.89px" viewBox="0 0 841.89 841.89" enable-background="new 0 0 841.89 841.89" xml:space="preserve">
<g id="Layer_2">
</g>
<g id="Layer_1">
	<path fill="#F57E20" d="M268.47,624.226h-50.847V575.92c0-8.388-6.868-15.246-15.248-15.246c-8.393,0-15.258,6.858-15.258,15.246
		v48.306h-45.76c-8.388,0-15.253,6.866-15.253,15.25c0,8.392,6.865,15.259,15.253,15.259h45.76v48.302
		c0,8.388,6.865,15.254,15.258,15.254c8.38,0,15.248-6.866,15.248-15.254v-48.302h50.847c8.388,0,15.253-6.867,15.253-15.255
		S276.858,624.226,268.47,624.226z"/>
	<path fill="#F57E20" d="M701.828,123.6H317.292c-7.458,0-13.748,6.22-13.748,14.02v42.931h-42.857
		c-7.988,0-14.203,6.398-14.203,14.185v47.304h-46.364c-7.501,0-13.904,6.196-13.904,14.562v234.901
		c3.588-2.807,8.284-4.553,14.111-4.553c5.65,0,10.243,1.636,13.79,4.291V270.201h356.337v356.317H348.794
		c5.115,8.369,4.807,20.078-0.939,28.033h236.93c7.501,0,13.714-6.219,13.714-14.02V593.09h46.556
		c7.441,0,13.957-6.554,13.957-13.978v-42.968h42.817c7.741,0,13.957-6.246,13.957-14.207V137.619
		C715.785,129.819,709.569,123.6,701.828,123.6z M631.004,565.024h-32.506V256.6c0-8.365-6.213-14.562-13.714-14.562H274.74v-33.234
		h356.264V565.024z M687.678,507.896h-28.667V194.734c0-7.786-6.516-14.185-13.957-14.185H331.341v-28.916h356.337V507.896z"/>
</g>
</svg>
